<?xml version="1.0" encoding="UTF-8" standalone="no"?>
<svg
   width="517.63635"
   height="482.98666"
   viewBox="0 0 136.95795 127.79022"
   version="1.1"
   id="svg1"
   xml:space="preserve"
   xmlns="http://www.w3.org/2000/svg"
   xmlns:svg="http://www.w3.org/2000/svg"
   xmlns:jsh="http://www.justsystem.co.jp/hanako13/svg"><defs
     id="defs1"><marker
       style="overflow:visible"
       id="ArrowWide"
       refX="0"
       refY="0"
       orient="auto-start-reverse"
       markerWidth="1.2"
       markerHeight="1.2"
       viewBox="0 0 1 1"
       preserveAspectRatio="xMidYMid"><path
         style="fill:none;stroke:context-stroke;stroke-width:1;stroke-linecap:butt"
         d="M 3,-3 0,0 3,3"
         transform="rotate(180,0.125,0)"
         id="path1-6" /></marker><marker
       style="overflow:visible"
       id="marker29"
       refX="0"
       refY="0"
       orient="auto-start-reverse"
       markerWidth="1.2"
       markerHeight="1.2"
       viewBox="0 0 1 1"
       preserveAspectRatio="xMidYMid"><path
         style="fill:none;stroke:context-stroke;stroke-width:1;stroke-linecap:butt"
         d="M 3,-3 0,0 3,3"
         transform="rotate(180,0.125,0)"
         id="path29" /></marker><marker
       style="overflow:visible"
       id="ArrowWide-0"
       refX="0"
       refY="0"
       orient="auto-start-reverse"
       markerWidth="1.2"
       markerHeight="1.2"
       viewBox="0 0 1 1"
       preserveAspectRatio="xMidYMid"><path
         style="fill:none;stroke:context-stroke;stroke-width:1;stroke-linecap:butt"
         d="M 3,-3 0,0 3,3"
         transform="rotate(180,0.125,0)"
         id="path1-6-4" /></marker><marker
       style="overflow:visible"
       id="marker29-4"
       refX="0"
       refY="0"
       orient="auto-start-reverse"
       markerWidth="1.2"
       markerHeight="1.2"
       viewBox="0 0 1 1"
       preserveAspectRatio="xMidYMid"><path
         style="fill:none;stroke:context-stroke;stroke-width:1;stroke-linecap:butt"
         d="M 3,-3 0,0 3,3"
         transform="rotate(180,0.125,0)"
         id="path29-9" /></marker><marker
       style="overflow:visible"
       id="ArrowWide-08"
       refX="0"
       refY="0"
       orient="auto-start-reverse"
       markerWidth="1.2"
       markerHeight="1.2"
       viewBox="0 0 1 1"
       preserveAspectRatio="xMidYMid"><path
         style="fill:none;stroke:context-stroke;stroke-width:1;stroke-linecap:butt"
         d="M 3,-3 0,0 3,3"
         transform="rotate(180,0.125,0)"
         id="path1-6-7" /></marker><marker
       style="overflow:visible"
       id="marker29-5"
       refX="0"
       refY="0"
       orient="auto-start-reverse"
       markerWidth="1.2"
       markerHeight="1.2"
       viewBox="0 0 1 1"
       preserveAspectRatio="xMidYMid"><path
         style="fill:none;stroke:context-stroke;stroke-width:1;stroke-linecap:butt"
         d="M 3,-3 0,0 3,3"
         transform="rotate(180,0.125,0)"
         id="path29-26" /></marker><marker
       style="overflow:visible"
       id="ArrowWide-4"
       refX="0"
       refY="0"
       orient="auto-start-reverse"
       markerWidth="1.2"
       markerHeight="1.2"
       viewBox="0 0 1 1"
       preserveAspectRatio="xMidYMid"><path
         style="fill:none;stroke:context-stroke;stroke-width:1;stroke-linecap:butt"
         d="M 3,-3 0,0 3,3"
         transform="rotate(180,0.125,0)"
         id="path1-6-77" /></marker><marker
       style="overflow:visible"
       id="marker29-7"
       refX="0"
       refY="0"
       orient="auto-start-reverse"
       markerWidth="1.2"
       markerHeight="1.2"
       viewBox="0 0 1 1"
       preserveAspectRatio="xMidYMid"><path
         style="fill:none;stroke:context-stroke;stroke-width:1;stroke-linecap:butt"
         d="M 3,-3 0,0 3,3"
         transform="rotate(180,0.125,0)"
         id="path29-1" /></marker><marker
       style="overflow:visible"
       id="ArrowWide-01"
       refX="0"
       refY="0"
       orient="auto-start-reverse"
       markerWidth="1.2"
       markerHeight="1.2"
       viewBox="0 0 1 1"
       preserveAspectRatio="xMidYMid"><path
         style="fill:none;stroke:context-stroke;stroke-width:1;stroke-linecap:butt"
         d="M 3,-3 0,0 3,3"
         transform="rotate(180,0.125,0)"
         id="path1-6-5" /></marker><marker
       style="overflow:visible"
       id="marker29-8"
       refX="0"
       refY="0"
       orient="auto-start-reverse"
       markerWidth="1.2"
       markerHeight="1.2"
       viewBox="0 0 1 1"
       preserveAspectRatio="xMidYMid"><path
         style="fill:none;stroke:context-stroke;stroke-width:1;stroke-linecap:butt"
         d="M 3,-3 0,0 3,3"
         transform="rotate(180,0.125,0)"
         id="path29-20" /></marker><marker
       style="overflow:visible"
       id="ArrowWide-01-9"
       refX="0"
       refY="0"
       orient="auto-start-reverse"
       markerWidth="1.2"
       markerHeight="1.2"
       viewBox="0 0 1 1"
       preserveAspectRatio="xMidYMid"><path
         style="fill:none;stroke:context-stroke;stroke-width:1;stroke-linecap:butt"
         d="M 3,-3 0,0 3,3"
         transform="rotate(180,0.125,0)"
         id="path1-6-5-0" /></marker><marker
       style="overflow:visible"
       id="marker29-8-5"
       refX="0"
       refY="0"
       orient="auto-start-reverse"
       markerWidth="1.2"
       markerHeight="1.2"
       viewBox="0 0 1 1"
       preserveAspectRatio="xMidYMid"><path
         style="fill:none;stroke:context-stroke;stroke-width:1;stroke-linecap:butt"
         d="M 3,-3 0,0 3,3"
         transform="rotate(180,0.125,0)"
         id="path29-20-3" /></marker></defs><g
     id="Frame"
     style="display:inline"
     transform="translate(-0.66189064,-2.1819167)"><path
       id="fill_1F"
       style="display:inline;fill:#f0f0f0;fill-opacity:1;fill-rule:evenodd;stroke:none;stroke-width:1;stroke-dasharray:none;stroke-dashoffset:0;stroke-opacity:1"
       d="M 4.1098266,5.5557333 V 52.343575 129.83962 H 51.79012 V 67.31062 A 15.59309,15.436666 0 0 0 67.287882,52.343575 H 137.48773 V 5.5557333 H 51.79012 Z M 38.323758,44.190585 42.26512,46.42559 C 42.220681,46.501895 42.177012,46.578612 42.134378,46.656067 41.96385,46.965884 41.807669,47.285026 41.667223,47.612081 41.105445,48.920301 40.792008,50.358961 40.785107,51.870219 H 36.267036 C 36.267036,49.739943 36.701599,47.710265 37.487117,45.864384 37.683496,45.402913 37.901854,44.953379 38.140824,44.516146 38.200567,44.406837 38.261455,44.298278 38.323758,44.190585 Z M 23.407356,125.25799 H 27.244331 V 128.3715 H 23.407356 Z" /><path
       id="frame_1F"
       style="display:inline;fill:none;fill-opacity:1;fill-rule:evenodd;stroke:#000000;stroke-width:0.264584;stroke-dasharray:none;stroke-dashoffset:0;stroke-opacity:1"
       d="M 67.006166,54.989428 C 67.225675,53.91247 67.310491,52.739377 67.309813,52.339129 L 137.48754,52.343454 V 5.5556361 L 56.945468,5.5590145 M 53.596424,5.5590145 4.1097206,5.5556361 V 94.960171 M 4.1097206,98.147911 V 129.8398 H 51.79028 V 88.87002 M 51.79028,84.767083 V 67.310691 C 52.839404,67.304823 53.92939,67.20333 54.920414,67.001731 M 57.835821,66.10224 C 59.23194,65.525629 60.495402,64.739955 61.669725,63.79029 M 63.775093,61.697714 C 65.209806,59.955839 65.837244,58.472609 66.101177,57.887116" /></g><g
     id="layer3"
     style="display:inline"
     transform="translate(-0.66189064,-2.1819167)"><g
       id="stairs_1F3"
       style="display:inline;stroke-width:1.00869;stroke-dasharray:none"
       transform="matrix(0.26310506,0,0,0.26150611,1.8237353,1.9746577)"><path
         style="display:inline;fill:#f0f0f0;fill-opacity:1;fill-rule:evenodd;stroke:#000000;stroke-width:1.00868;stroke-linecap:square;stroke-dasharray:none"
         d="M 24.730272,19.197374 V 32.353437"
         id="stairs_1F3-9" /><path
         style="display:inline;fill:#f0f0f0;fill-opacity:1;fill-rule:evenodd;stroke:#000000;stroke-width:1.00868;stroke-linecap:square;stroke-dasharray:none"
         d="M 27.376116,19.197374 V 32.353437"
         id="stairs_1F3-8" /><path
         style="display:inline;fill:#f0f0f0;fill-opacity:1;fill-rule:evenodd;stroke:#000000;stroke-width:1.00868;stroke-linecap:square;stroke-dasharray:none"
         d="M 30.021963,19.197374 V 32.353437"
         id="stairs_1F3-7" /><path
         style="display:inline;fill:#f0f0f0;fill-opacity:1;fill-rule:evenodd;stroke:#000000;stroke-width:1.00868;stroke-linecap:square;stroke-dasharray:none"
         d="M 32.66781,19.197374 V 32.353437"
         id="stairs_1F3-6" /><path
         style="display:inline;fill:#f0f0f0;fill-opacity:1;fill-rule:evenodd;stroke:#000000;stroke-width:1.00868;stroke-linecap:square;stroke-dasharray:none"
         d="M 35.313669,19.197374 V 32.353437"
         id="stairs_1F3-5" /><path
         style="display:inline;fill:#f0f0f0;fill-opacity:1;fill-rule:evenodd;stroke:#000000;stroke-width:1.00868;stroke-linecap:square;stroke-dasharray:none"
         d="M 37.959516,19.197374 V 32.353437"
         id="stairs_1F3-4" /><path
         style="display:inline;fill:#f0f0f0;fill-opacity:1;fill-rule:evenodd;stroke:#000000;stroke-width:1.00868;stroke-linecap:square;stroke-dasharray:none"
         d="M 40.605363,19.197374 V 32.353437"
         id="stairs_1F3-3" /><path
         style="display:inline;fill:#f0f0f0;fill-opacity:1;fill-rule:evenodd;stroke:#000000;stroke-width:1.00868;stroke-linecap:square;stroke-dasharray:none"
         d="M 43.25121,19.197374 V 32.353437"
         id="stairs_1F3-2" /><path
         style="display:inline;fill:#f0f0f0;fill-opacity:1;fill-rule:evenodd;stroke:#000000;stroke-width:1.00868;stroke-linecap:square;stroke-dasharray:none"
         d="M 8.6966244,19.197373 H 43.207834"
         id="stairs_1F3-0" /></g><g
       id="stairs_1F2"
       style="display:inline;stroke-width:1.00869;stroke-dasharray:none"
       transform="matrix(0.26310506,0,0,0.26150611,1.4234853,1.7750428)"><path
         style="display:inline;fill:#f0f0f0;fill-opacity:1;fill-rule:evenodd;stroke:#000000;stroke-width:1.00868;stroke-linecap:square;stroke-dasharray:none"
         d="M 98.136532,472.19926 V 484.10551"
         id="stairs_1F2-9" /><path
         style="display:inline;fill:#f0f0f0;fill-opacity:1;fill-rule:evenodd;stroke:#000000;stroke-width:1.00868;stroke-linecap:square;stroke-dasharray:none"
         d="M 100.78237,472.19926 V 484.10551"
         id="stairs_1F2-8" /><path
         style="display:inline;fill:#f0f0f0;fill-opacity:1;fill-rule:evenodd;stroke:#000000;stroke-width:1.00868;stroke-linecap:square;stroke-dasharray:none"
         d="M 103.42822,472.19926 V 484.10551"
         id="stairs_1F2-7" /><path
         style="display:inline;fill:#f0f0f0;fill-opacity:1;fill-rule:evenodd;stroke:#000000;stroke-width:1.00868;stroke-linecap:square;stroke-dasharray:none"
         d="M 106.07407,472.19926 V 484.10551"
         id="stairs_1F2-6" /><path
         style="display:inline;fill:#f0f0f0;fill-opacity:1;fill-rule:evenodd;stroke:#000000;stroke-width:1.00868;stroke-linecap:square;stroke-dasharray:none"
         d="M 108.71992,472.19926 V 484.10551"
         id="stairs_1F2-5" /><path
         style="display:inline;fill:#f0f0f0;fill-opacity:1;fill-rule:evenodd;stroke:#000000;stroke-width:1.00868;stroke-linecap:square;stroke-dasharray:none"
         d="M 111.36577,472.19926 V 484.10551"
         id="stairs_1F2-4" /><path
         style="fill:#f0f0f0;fill-opacity:1;fill-rule:evenodd;stroke:#000000;stroke-width:1.00868;stroke-linecap:square;stroke-dasharray:none"
         d="M 114.01162,472.19926 V 484.10551"
         id="stairs_1F2-3" /><path
         style="display:inline;fill:#f0f0f0;fill-opacity:1;fill-rule:evenodd;stroke:#000000;stroke-width:1.00868;stroke-linecap:square;stroke-dasharray:none"
         d="M 116.65747,472.19926 V 484.10551"
         id="stairs_1F2-2" /><path
         style="display:inline;fill:#f0f0f0;fill-opacity:1;fill-rule:evenodd;stroke:#000000;stroke-width:1.00868;stroke-linecap:square;stroke-dasharray:none"
         d="M 83.584552,484.10551 H 116.65747"
         id="stairs_1F2-1" /><path
         style="fill:#f0f0f0;fill-opacity:1;fill-rule:evenodd;stroke:#000000;stroke-width:1.00868;stroke-linecap:square;stroke-dasharray:none"
         d="M 83.584548,472.19926 H 116.65747"
         id="stairs_1F2-0" /></g><g
       id="stairs_1F1"
       style="display:inline;stroke-width:1.00869;stroke-dasharray:none"
       transform="matrix(0.26310506,0,0,0.26150611,1.4234853,1.7750428)"><path
         style="display:inline;fill:none;fill-opacity:1;fill-rule:evenodd;stroke:#000000;stroke-width:1.00868;stroke-linecap:square;stroke-dasharray:none"
         d="M 140.49828,162.18991 155.22798,170.74189"
         id="stairs_1F1-6" /><path
         style="display:inline;fill:none;fill-opacity:1;fill-rule:evenodd;stroke:#000000;stroke-width:1.00868;stroke-linecap:square;stroke-dasharray:none"
         d="M 146.36245,153.77016 159.38333,164.75"
         id="stairs_1F1-5" /><path
         style="display:inline;fill:none;fill-opacity:1;fill-rule:evenodd;stroke:#000000;stroke-width:1.00868;stroke-linecap:square;stroke-dasharray:none"
         d="M 153.64037,146.50381 164.5568,159.5779"
         id="stairs_1F1-4" /><path
         style="display:inline;fill:none;fill-opacity:1;fill-rule:evenodd;stroke:#000000;stroke-width:1.00868;stroke-linecap:square;stroke-dasharray:none"
         d="M 162.11091,140.61166 170.59121,155.38274"
         id="stairs_1F1-3" /><path
         style="display:inline;fill:none;fill-opacity:1;fill-rule:evenodd;stroke:#000000;stroke-width:1.00868;stroke-linecap:square;stroke-dasharray:none"
         d="M 171.43516,136.27272 177.22165,152.29199"
         id="stairs_1F1-2" /><path
         style="display:inline;fill:none;fill-opacity:1;fill-rule:evenodd;stroke:#000000;stroke-width:1.00868;stroke-linecap:square;stroke-dasharray:none"
         d="M 181.32979,133.61885 184.24666,150.39955"
         id="stairs_1F1-1" /><path
         id="stairs_1F1-0"
         style="display:inline;fill:none;fill-opacity:1;fill-rule:evenodd;stroke:#000000;stroke-width:1.00868;stroke-linecap:square;stroke-dasharray:none;stroke-opacity:1"
         d="M 132.57032,191.68353 149.6026,191.72492 M 191.57572,132.73066 191.53433,149.76294 M 149.59895,191.59508 C 149.59895,168.49117 168.32837,149.76174 191.43228,149.76174" /></g></g><g
     id="Room"
     style="display:inline"
     transform="translate(-0.66189064,-2.1819167)"><rect
       style="display:inline;fill:#f0f0f0;fill-opacity:1;fill-rule:evenodd;stroke:#000000;stroke-width:0.264583;stroke-dasharray:none;stroke-dashoffset:0;stroke-opacity:1"
       id="room_1F_storage3"
       width="8.7354164"
       height="46.787804"
       x="128.75212"
       y="5.5556426" /><path
       id="room_1F_non9"
       style="display:inline;fill:#f0f0f0;fill-opacity:1;fill-rule:evenodd;stroke:#000000;stroke-width:0.264584;stroke-dasharray:none;stroke-dashoffset:0;stroke-opacity:1"
       d="M 39.46086,28.949477 V 42.490613 H 39.509128 C 41.450403,39.973133 44.124779,38.111116 47.168479,37.157836 48.345507,36.836359 49.545797,36.310542 52.818979,36.479448 V 28.949477 H 47.168479 Z" /><path
       id="room_1F_non8"
       style="display:inline;fill:#f0f0f0;fill-opacity:1;fill-rule:evenodd;stroke:#000000;stroke-width:0.264584;stroke-dasharray:none"
       d="M 43.425142,58.988006 40.064398,61.9994 C 41.307625,63.402628 42.796995,64.569701 44.459961,65.443773 L 46.609265,61.530202 V 61.530202 C 45.455637,60.90643 44.286715,59.973159 43.425142,58.988006 Z" /><rect
       style="fill:#f0f0f0;fill-opacity:1;fill-rule:evenodd;stroke:#000000;stroke-width:0.264584;stroke-dasharray:none;stroke-dashoffset:0;stroke-opacity:1"
       id="room_1F_non7"
       width="5.3059525"
       height="6.6575103"
       x="23.330048"
       y="72.69223" /><rect
       style="display:inline;fill:#f0f0f0;fill-opacity:1;fill-rule:evenodd;stroke:#000000;stroke-width:0.264584;stroke-dasharray:none;stroke-dashoffset:0;stroke-opacity:1"
       id="room_1F_staff"
       width="9.8308115"
       height="14.268427"
       x="20.031307"
       y="107.87598" /><rect
       style="display:inline;fill:#f0f0f0;fill-opacity:1;fill-rule:evenodd;stroke:#000000;stroke-width:0.264584;stroke-dasharray:none;stroke-dashoffset:0;stroke-opacity:1"
       id="room_1F_non6"
       width="15.747936"
       height="8.7332153"
       x="36.04237"
       y="113.41125" /><rect
       style="fill:#f0f0f0;fill-opacity:1;fill-rule:evenodd;stroke:#000000;stroke-width:0.264584;stroke-dasharray:none;stroke-dashoffset:0;stroke-opacity:1"
       id="room_1F_non5"
       width="15.747934"
       height="7.6953626"
       x="36.04237"
       y="122.14448" /><rect
       style="display:inline;fill:#f0f0f0;fill-opacity:1;fill-rule:evenodd;stroke:#000000;stroke-width:0.264584;stroke-dasharray:none;stroke-dashoffset:0;stroke-opacity:1"
       id="room_1F_storage2"
       width="12.267275"
       height="16.690084"
       x="4.1014581"
       y="113.14976" /><rect
       style="display:inline;fill:#f0f0f0;fill-opacity:1;fill-rule:evenodd;stroke:#000000;stroke-width:0.264584;stroke-dasharray:none;stroke-dashoffset:0;stroke-opacity:1"
       id="room_1F_non4"
       width="12.267275"
       height="6.6145825"
       x="4.1014581"
       y="106.53517" /><rect
       style="display:inline;fill:#f0f0f0;fill-opacity:1;fill-rule:evenodd;stroke:#000000;stroke-width:0.264584;stroke-dasharray:none;stroke-dashoffset:0;stroke-opacity:1"
       id="room_1F_non3"
       width="12.267275"
       height="15.610416"
       x="4.1014581"
       y="79.349754" /><rect
       style="display:inline;fill:#f0f0f0;fill-opacity:1;fill-rule:evenodd;stroke:#000000;stroke-width:0.264584;stroke-dasharray:none;stroke-dashoffset:0;stroke-opacity:1"
       id="room_1F_fridge2"
       width="8.438549"
       height="12.192723"
       x="4.1014581"
       y="54.879856" /><rect
       style="display:inline;fill:#f0f0f0;fill-opacity:1;fill-rule:evenodd;stroke:#000000;stroke-width:0.264584;stroke-dasharray:none;stroke-dashoffset:0;stroke-opacity:1"
       id="room_1F_storage1"
       width="8.4385481"
       height="8.0413122"
       x="4.1014581"
       y="46.838539" /><rect
       style="fill:#f0f0f0;fill-opacity:1;fill-rule:evenodd;stroke:#000000;stroke-width:0.264584;stroke-dasharray:none;stroke-dashoffset:0;stroke-opacity:1"
       id="room_1F_non2"
       width="8.4385481"
       height="19.80364"
       x="4.1014581"
       y="20.807938" /><rect
       style="fill:#f0f0f0;fill-opacity:1;fill-rule:evenodd;stroke:#000000;stroke-width:0.264584;stroke-dasharray:none;stroke-dashoffset:0;stroke-opacity:1"
       id="room_1F_fridge1"
       width="8.4385481"
       height="10.117018"
       x="4.1014581"
       y="10.690922" /><rect
       style="display:inline;fill:#f0f0f0;fill-opacity:1;fill-rule:evenodd;stroke:#000000;stroke-width:0.264584;stroke-dasharray:none;stroke-dashoffset:0;stroke-opacity:1"
       id="room_1F_non1"
       width="3.9136894"
       height="5.1353264"
       x="16.368729"
       y="5.5555944" /><path
       id="room_1F_hall"
       style="display:inline;fill:none;fill-rule:evenodd;stroke:#000000;stroke-width:0.264584;stroke-linecap:butt;stroke-dasharray:none"
       d="M 66.101177,57.887116 C 65.606015,59.050681 64.865638,60.384302 63.775093,61.697714 M 61.669725,63.79029 C 60.296578,64.916618 58.933414,65.640823 57.835821,66.10224 M 54.920414,67.001731 C 53.902786,67.208701 52.853231,67.315359 51.790289,67.315359 50.718068,67.315359 49.671224,67.207368 48.660167,67.001733 48.154638,66.898916 47.658055,66.771687 47.171721,66.621341 M 44.552746,65.540344 C 44.49733,65.511283 44.442111,65.481898 44.387094,65.452192 43.946955,65.214546 43.519665,64.956371 43.106527,64.678956 42.280251,64.124127 41.510579,63.492345 40.807921,62.793957 37.997288,60.000403 36.258877,56.141145 36.258877,51.878326 36.258877,43.352689 43.212523,36.441294 51.790289,36.441294 52.326402,36.441294 52.856166,36.468293 53.378293,36.520993 M 56.408865,37.135314 C 58.875492,37.897842 60.639029,39.120937 61.669725,39.966363 M 63.775093,42.058939 C 65.364673,43.973347 66.190846,45.905427 66.623454,47.287825 M 67.241528,50.29998 C 67.294548,50.818929 67.321712,51.345474 67.321712,51.878326 67.321712,53.111498 67.17556,54.166673 67.006166,54.989428" /><path
       id="room_1F_toilet2"
       style="display:inline;fill:#ffffff;fill-opacity:1;fill-rule:evenodd;stroke:#000000;stroke-width:0.264584;stroke-dasharray:none"
       d="M 19.891867,125.25803 H 23.415007 V 129.83984 H 16.368729 V 125.25803 H 18.130298" /><rect
       style="display:inline;fill:#ffffff;fill-opacity:1;fill-rule:evenodd;stroke:#000000;stroke-width:0.264584;stroke-dasharray:none;stroke-dashoffset:0;stroke-opacity:1"
       id="room_1F_security"
       width="12.267275"
       height="8.3872633"
       x="4.1014581"
       y="98.147911" /><g
       id="room_1F_lift"
       transform="matrix(0.26310506,0,0,0.26150611,1.4234853,1.7750428)"
       style="stroke-width:1.00869;stroke-dasharray:none"><rect
         style="fill:#ffffff;fill-opacity:1;fill-rule:evenodd;stroke:#000000;stroke-width:1.00868;stroke-dasharray:none;stroke-dashoffset:0;stroke-opacity:1"
         id="room_1F_lift-2"
         width="20.166666"
         height="21.489584"
         x="83.261627"
         y="249.69794" /><rect
         style="display:inline;fill:#ffffff;fill-opacity:1;fill-rule:evenodd;stroke:#000000;stroke-width:1.00868;stroke-dasharray:none;stroke-dashoffset:0;stroke-opacity:1"
         id="room_1F_lift-1"
         width="13.934971"
         height="15.179597"
         x="86.377472"
         y="252.85294" /></g><path
       id="room_1F_toilet1"
       style="fill:#ffffff;fill-opacity:1;fill-rule:evenodd;stroke:#000000;stroke-width:0.264584;stroke-dasharray:none"
       d="M 16.368729,79.349749 4.1014546,79.349744 V 67.072579 H 23.330051 V 79.349744 H 19.899745" /><path
       id="room_1F_kitchen"
       style="display:inline;fill:#ffffff;fill-opacity:1;fill-rule:evenodd;stroke:#000000;stroke-width:0.264584;stroke-dasharray:none;stroke-dashoffset:0;stroke-opacity:1"
       d="M 12.539996,45.7315 12.539987,67.072579 H 28.636004 V 51.878326 H 26.791255 V 44.491967 H 28.636004 V 16.825253 H 47.168479 V 5.5556361 H 20.282417 V 10.690979 H 12.539987 L 12.539996,41.718623" /><g
       id="room_1F_Shop"><path
         id="room_1F_Shop-2"
         style="display:inline;fill:#ffffff;fill-opacity:1;fill-rule:evenodd;stroke:none;stroke-width:0.529166;stroke-dasharray:none;stroke-dashoffset:0;stroke-opacity:1"
         d="M 20.031291,82.275628 V 107.90045 H 29.86212 V 122.14443 H 36.042333 V 113.4112 H 51.79028 V 82.275628 Z" /><path
         id="room_1F_Shop-1"
         style="display:inline;fill:none;fill-opacity:1;fill-rule:evenodd;stroke:#000000;stroke-width:0.529166;stroke-dasharray:none;stroke-dashoffset:0;stroke-opacity:1"
         d="M 29.558538,82.275628 H 20.031291 V 107.90045 H 29.86212 V 122.14443 H 36.042333 V 113.4112 H 51.79028 V 88.847581 M 51.79028,84.767854 V 82.275628 H 34.323285" /></g><path
       id="room_1F_Kiyare"
       style="display:inline;fill:#ffffff;fill-opacity:1;fill-rule:evenodd;stroke:#000000;stroke-width:0.264583;stroke-linecap:square;stroke-dasharray:none"
       d="M 44.45224,65.467293 C 44.316181,65.395437 44.238985,65.352061 44.102513,65.274619 43.829568,65.119735 43.556002,64.953482 43.282637,64.775065 42.18918,64.061397 41.098944,63.153113 40.064539,61.9994 L 34.99814,66.539057 V 67.315418 82.275628 H 51.79028 V 67.315418 C 51.15098,67.312121 50.357072,67.26665 49.461166,67.128191 49.013213,67.058962 48.539761,66.966485 48.047385,66.844409 47.801197,66.783372 47.550279,66.714934 47.295451,66.638303" /><g
       id="room_1F_OrderCashier"
       style="display:inline;stroke-width:2.01738;stroke-dasharray:none"
       transform="matrix(0.26310506,0,0,0.26150611,1.4234853,1.7750428)"><path
         id="room_1F_OrderCashier_fill"
         style="display:inline;fill:#ffffff;fill-opacity:1;fill-rule:evenodd;stroke:none;stroke-width:2.01738;stroke-dasharray:none;stroke-dashoffset:0;stroke-opacity:1"
         d="M 173.86587,57.552043 H 103.42831 V 163.34972 H 96.416854 V 191.59502 H 103.42831 109.62147 117.9313 126.24113 132.43429 L 132.43223,191.56402 C 132.48402,178.22557 136.88306,165.63618 144.57102,155.69644 144.30651,156.02826 144.57102,155.69644 144.57102,155.69644 V 103.9151 H 173.86587" /><path
         id="room_1F_OrderCashier_frame"
         style="display:inline;fill:none;fill-opacity:1;fill-rule:evenodd;stroke:#000000;stroke-width:2.01738;stroke-dasharray:none;stroke-dashoffset:0;stroke-opacity:1"
         d="M 173.86587,57.552043 H 103.42831 V 163.34972 H 96.416854 V 191.59502 H 103.42831 109.62147 M 126.24113,191.59502 H 132.43429 L 132.43223,191.56402 C 132.48402,178.22557 136.88306,165.63618 144.57102,155.69644 144.30651,156.02826 144.57102,155.69644 144.57102,155.69644 V 103.9151 H 173.86587" /><rect
         style="display:inline;fill:none;fill-rule:evenodd;stroke:#000000;stroke-width:1.00868;stroke-dasharray:none;stroke-dashoffset:0;stroke-opacity:1"
         id="room_1F_register3"
         width="17.520838"
         height="3.7625051"
         x="155.34503"
         y="92.74778" /><rect
         style="display:inline;fill:none;fill-rule:evenodd;stroke:#000000;stroke-width:1.00868;stroke-dasharray:none;stroke-dashoffset:0;stroke-opacity:1"
         id="room_1F_register2"
         width="17.520838"
         height="3.7625051"
         x="155.34503"
         y="78.837082" /><rect
         style="display:inline;fill:none;fill-rule:evenodd;stroke:#000000;stroke-width:1.00868;stroke-dasharray:none;stroke-dashoffset:0;stroke-opacity:1"
         id="room_1F_register1"
         width="17.520838"
         height="3.7625051"
         x="155.34503"
         y="64.926384" /></g><g
       id="room_1F_Cafeteria"
       style="display:inline;stroke-width:1.99945;stroke-dasharray:none"
       transform="matrix(0.26784407,0,0,0.26150611,0.59953335,1.7750428)"><path
         id="room_1F_Cafeteria_fill"
         style="display:inline;fill:#ffffff;fill-opacity:1;fill-rule:evenodd;stroke:none;stroke-width:1.99945;stroke-dasharray:none;stroke-dashoffset:0;stroke-opacity:1"
         d="M 173.86587,14.456999 V 57.552043 103.9151 H 195.34208 V 132.70973 C 195.34225,132.70989 195.34243,132.71009 195.3426,132.71025 A 59,59 0 0 1 250.43226,191.56402 59,59 0 0 1 250.30875,193.28794 C 250.33729,193.30868 250.40872,193.38957 250.43588,193.40835 L 478.45968,193.37373 V 14.456999 L 217.39087,14.469918 H 211.02588 198.29694 191.93247 Z" /><path
         id="room_1F_Cafeteria_frame"
         style="display:inline;fill:none;fill-opacity:1;fill-rule:evenodd;stroke:#000000;stroke-width:1.99945;stroke-dasharray:none;stroke-dashoffset:0;stroke-opacity:1"
         d="M 173.86587,103.9151 H 195.34208 V 132.70973 C 197.28019,132.83839 196.42189,132.77173 197.46788,132.8686 M 208.98637,135.21776 C 218.7492,138.27552 224.84328,142.84649 228.98164,146.0437 M 236.98367,154.04572 C 238.89207,156.08442 245.38813,165.44654 247.8096,174.04099 M 250.15876,185.55948 C 250.34334,187.45573 250.46272,189.65265 250.46326,191.59502 250.42984,192.18853 250.48701,192.81604 250.43568,193.40827 L 478.45968,193.37373 V 14.456999 L 217.39062,14.470083 H 211.02603 M 198.29686,14.470083 H 191.93228 L 173.86587,14.456999 V 57.552043" /><path
         id="room_1F_entrance"
         style="display:inline;fill:none;fill-rule:evenodd;stroke:#000000;stroke-width:1.99945;stroke-dasharray:none"
         d="M 198.29687,24.053419 H 191.93228 V 14.470083 H 198.29687 M 211.02603,14.470083 H 217.39062 V 24.053419 H 211.02603" /></g></g><g
     id="layer1"
     style="display:inline"
     transform="translate(-0.66189064,-2.1819167)"><text
       xml:space="preserve"
       style="font-style:normal;font-weight:normal;font-size:1.76389px;line-height:1;font-family:'MS PGothic';display:inline;fill:#000000;fill-opacity:1;stroke:none;stroke-width:0.275433"
       x="35.110405"
       y="57.645775"
       id="text_1F_lift"
       transform="scale(0.82783622,1.2079684)"><tspan
         id="tspan12"
         x="35.110405"
         y="57.645775"
         style="letter-spacing:-0.079375px"><tspan
           style="font-style:normal;font-variant:normal;font-weight:normal;font-stretch:normal;font-size:1.76389px;line-height:1;font-family:'Meiryo UI';letter-spacing:-0.079375px;stroke-width:0.275433"
           id="tspan35-7"
           x="35.110405"
           y="57.645775">エレベータ</tspan></tspan><tspan
         id="tspan13"
         x="35.110405"
         y="59.442394"
         style="font-style:normal;font-variant:normal;font-weight:normal;font-stretch:normal;font-family:'Meiryo UI';letter-spacing:-0.079375px">Elevator</tspan></text><text
       xml:space="preserve"
       style="font-style:normal;font-variant:normal;font-weight:normal;font-stretch:normal;font-size:2.46944px;line-height:1;font-family:'Meiryo UI';display:inline;fill:#000000;fill-opacity:1;stroke:none;stroke-width:0.282;stroke-dasharray:none"
       x="18.808704"
       y="99.45018"
       id="text_1F_security"
       transform="scale(0.97623683,1.0243416)"><tspan
         id="tspan5-23"
         x="10.434797"
         y="99.45018"
         style="font-size:2.46944px;line-height:1;text-align:center;text-anchor:middle"><tspan
           style="font-style:normal;font-variant:normal;font-weight:normal;font-stretch:normal;font-size:2.46944px;line-height:1;font-family:'Meiryo UI';text-align:center;text-anchor:middle;stroke-width:0.282;stroke-dasharray:none"
           id="tspan14-7"
           x="10.434797"
           y="99.45018">警備員</tspan></tspan><tspan
         x="10.434797"
         y="101.91962"
         id="tspan7-4"
         style="font-size:2.46944px;line-height:1;text-align:center;text-anchor:middle">Security</tspan></text><text
       xml:space="preserve"
       style="font-style:normal;font-variant:normal;font-weight:normal;font-stretch:normal;font-size:2.82222px;line-height:1;font-family:'Meiryo UI';display:inline;fill:#000000;fill-opacity:1;stroke:none;stroke-width:0.282;stroke-dasharray:none"
       x="29.173885"
       y="30.111124"
       id="text_1F_kitchen"
       transform="scale(0.97623683,1.0243416)"><tspan
         id="tspan5-0"
         x="20.799969"
         y="30.111124"
         style="font-size:2.82222px;line-height:1;text-align:center;text-anchor:middle"><tspan
           style="font-style:normal;font-variant:normal;font-weight:normal;font-stretch:normal;font-size:2.82222px;line-height:1;font-family:'Meiryo UI';text-align:center;text-anchor:middle;stroke-width:0.282;stroke-dasharray:none"
           id="tspan14-9"
           x="20.799969"
           y="30.111124">厨房</tspan></tspan><tspan
         x="20.799969"
         y="32.933346"
         id="tspan7-0"
         style="font-size:2.82222px;line-height:1;text-align:center;text-anchor:middle">Kitchen</tspan></text><text
       xml:space="preserve"
       style="font-style:normal;font-variant:normal;font-weight:normal;font-stretch:normal;font-size:3.175px;line-height:1;font-family:'Meiryo UI';display:inline;fill:#000000;fill-opacity:1;stroke:none;stroke-width:0.282;stroke-dasharray:none"
       x="36.765533"
       y="93.501801"
       id="text_1F_Shop"
       transform="scale(0.97623683,1.0243416)"><tspan
         id="tspan5-2"
         x="36.765533"
         y="93.501801"
         style="line-height:1;text-align:center;text-anchor:middle">売店<tspan
   style="font-style:normal;font-variant:normal;font-weight:normal;font-stretch:normal;font-size:3.175px;line-height:1;font-family:'Meiryo UI';text-align:center;text-anchor:middle;stroke-width:0.282;stroke-dasharray:none"
   id="tspan14-6"
   x="28.391624"
   y="93.501801" /></tspan><tspan
         id="tspan6-3"
         x="36.765533"
         y="96.676804"
         style="line-height:1;text-align:center;text-anchor:middle">Shop</tspan><tspan
         x="36.765533"
         y="99.851799"
         id="tspan7-5"
         style="line-height:1;text-align:center;text-anchor:middle" /></text><text
       xml:space="preserve"
       style="font-style:normal;font-variant:normal;font-weight:normal;font-stretch:normal;font-size:2.82222px;line-height:0;font-family:'Meiryo UI';display:inline;fill:#000000;fill-opacity:1;stroke:none;stroke-width:0.282;stroke-dasharray:none"
       x="44.432926"
       y="68.838081"
       id="text_1F_Kiyare"
       transform="scale(0.97623683,1.0243416)"><tspan
         id="tspan5-5"
         x="44.432926"
         y="68.838081"
         style="font-size:2.82222px;line-height:1;text-align:center;text-anchor:middle">コミュニティ</tspan><tspan
         x="44.432926"
         y="71.660301"
         style="font-size:2.82222px;line-height:1;text-align:center;text-anchor:middle"
         id="tspan15">スペース</tspan><tspan
         x="44.432926"
         y="74.482521"
         style="font-size:2.82222px;line-height:1;text-align:center;text-anchor:middle"
         id="tspan16">きやれ</tspan><tspan
         style="font-size:2.11667px;line-height:1;text-align:center;text-anchor:middle"
         id="tspan24"
         x="44.432926"
         y="76.685318">Community</tspan><tspan
         style="font-size:2.11667px;line-height:1;text-align:center;text-anchor:middle"
         id="tspan21"
         x="44.432926"
         y="78.801987">Space Kiyare</tspan><tspan
         x="44.432926"
         y="80.126968"
         id="tspan7-9"
         style="font-size:2.82222px;line-height:1;text-align:center;text-anchor:middle" /></text><text
       xml:space="preserve"
       style="font-style:normal;font-variant:normal;font-weight:normal;font-stretch:normal;font-size:2.46944px;line-height:1;font-family:'Meiryo UI';display:inline;fill:#000000;fill-opacity:1;stroke:none;stroke-width:0.282;stroke-dasharray:none"
       x="34.856781"
       y="27.735392"
       id="text_1F_OrderCashier"
       transform="scale(0.97623683,1.0243416)"><tspan
         style="font-style:normal;font-variant:normal;font-weight:normal;font-stretch:normal;font-size:2.46944px;line-height:1;font-family:'Meiryo UI';text-align:center;letter-spacing:-0.132292px;text-anchor:middle;stroke-width:0.282;stroke-dasharray:none"
         id="tspan42"
         x="34.856781"
         y="27.735392">注文・レジ</tspan><tspan
         style="font-size:2.46944px;line-height:1;text-align:center;text-anchor:middle"
         id="tspan27"
         x="34.856781"
         y="30.204832">Order</tspan><tspan
         style="font-size:2.46944px;line-height:1;text-align:center;text-anchor:middle"
         id="tspan30"
         x="34.856781"
         y="32.674271">&amp;</tspan><tspan
         x="34.856781"
         y="35.143711"
         id="tspan7-8"
         style="font-size:2.46944px;line-height:1;text-align:center;text-anchor:middle">Cashier</tspan></text><text
       xml:space="preserve"
       style="font-style:normal;font-variant:normal;font-weight:normal;font-stretch:normal;font-size:3.175px;line-height:1;font-family:'Meiryo UI';display:inline;fill:#000000;fill-opacity:1;stroke:none;stroke-width:0.282;stroke-dasharray:none"
       x="103.67313"
       y="27.779676"
       id="text_1F_Cafeteria"
       transform="scale(0.97623683,1.0243416)"><tspan
         id="tspan5"
         x="95.299217"
         y="27.779676"
         style="line-height:1;text-align:center;text-anchor:middle"><tspan
           style="font-style:normal;font-variant:normal;font-weight:normal;font-stretch:normal;font-size:3.175px;line-height:1;font-family:'Meiryo UI';text-align:center;text-anchor:middle;stroke-width:0.282;stroke-dasharray:none"
           id="tspan14"
           x="95.299217"
           y="27.779676">食堂</tspan></tspan><tspan
         id="tspan6"
         x="95.299217"
         y="30.954676"
         style="line-height:1;text-align:center;text-anchor:middle">Cafeteria</tspan><tspan
         x="95.299217"
         y="34.129677"
         id="tspan7"
         style="line-height:1;text-align:center;text-anchor:middle" /></text></g><g
     id="layer2"
     style="display:inline"
     transform="translate(-0.66189064,-2.1819167)"><path
       style="display:inline;fill:#000000;fill-opacity:1;stroke:#000000;stroke-width:0.3175;stroke-linejoin:round;stroke-dasharray:none;stroke-opacity:1;marker-start:url(#ArrowWide-01-9);marker-end:url(#marker29-8-5)"
       d="M 6.9118176,96.556111 C 4.9499976,96.582811 2.9882076,96.520311 1.0264876,96.556111"
       id="mark_1F_entrance4" /><path
       style="display:inline;fill:#000000;fill-opacity:1;stroke:#000000;stroke-width:0.3175;stroke-linejoin:round;stroke-dasharray:none;stroke-opacity:1;marker-start:url(#ArrowWide-01);marker-end:url(#marker29-8)"
       d="M 55.54209,86.827026 C 53.58027,86.853726 51.61848,86.791226 49.65676,86.827026"
       id="mark_1F_entrance3" /><g
       id="mark_1F_entrance2"
       style="display:inline"
       transform="translate(1.3229166)"><path
         style="display:inline;fill:#000000;fill-opacity:1;stroke:#000000;stroke-width:0.3175;stroke-linejoin:round;stroke-dasharray:none;stroke-opacity:1;marker-start:url(#ArrowWide-4);marker-end:url(#marker29-7)"
         d="M 54.46055,64.85555 C 54.994096,66.74361 55.441475,68.654731 55.983786,70.540341"
         id="mark_1F_entrance2-3" /><path
         style="display:inline;fill:#000000;fill-opacity:1;stroke:#000000;stroke-width:0.3175;stroke-linejoin:round;stroke-dasharray:none;stroke-opacity:1;marker-start:url(#ArrowWide-08);marker-end:url(#marker29-5)"
         d="M 59.968029,61.255906 C 61.374124,62.624241 62.717125,64.055631 64.129585,65.417462"
         id="mark_1F_entrance2-2" /><path
         style="display:inline;fill:#000000;fill-opacity:1;stroke:#000000;stroke-width:0.3175;stroke-linejoin:round;stroke-dasharray:none;stroke-opacity:1;marker-start:url(#ArrowWide-0);marker-end:url(#marker29-4)"
         d="M 63.288487,55.722476 C 65.190368,56.204442 67.069137,56.772561 68.973278,57.245712"
         id="mark_1F_entrance2-1" /></g><path
       style="display:inline;fill:#000000;fill-opacity:1;stroke:#000000;stroke-width:0.3175;stroke-linejoin:round;stroke-dasharray:none;stroke-opacity:1;marker-start:url(#ArrowWide);marker-end:url(#marker29)"
       d="M 55.273018,2.5465407 C 55.299718,4.5083587 55.237218,6.4701497 55.273018,8.4318697"
       id="mark_1F_entrance1" /><g
       id="mark_1F_toilet2"
       transform="matrix(0.28125166,0,0,0.28125261,-49.611315,34.272064)"
       style="display:inline;stroke-width:1.00345"><path
         style="display:inline;fill:#000000;fill-rule:evenodd;stroke-width:1"
         d="M 163.67844,702.16288 168.74094,702.16193 166.71594,693.16297 H 165.71747 L 163.67844,702.16297 Z"
         id="mark_1F_toilet2F-2"
         transform="matrix(1.0034507,0,0,1.0034473,80.337744,-366.42283)" /><path
         d="M 167.70969,690.6823 A 1.4999977,1.4999999 0 0 1 166.21316,692.1823 1.4999977,1.4999999 0 0 1 164.70971,690.68926 1.4999977,1.4999999 0 0 1 166.19925,689.18234 1.4999977,1.4999999 0 0 1 167.70962,690.66839"
         id="mark_1F_toilet2F-1"
         style="display:inline;fill:#000000;fill-opacity:1;stroke:none;stroke-width:0.105127"
         transform="matrix(1.0034507,0,0,1.0034473,80.337744,-366.42283)" /></g><g
       id="mark_1F_toilet1"
       style="display:inline;stroke-width:1.00345"
       transform="matrix(0.28125166,0,0,0.28125261,-72.905126,-19.338673)"><path
         style="display:inline;opacity:1;fill:none;stroke:#000000;stroke-width:1.00345;stroke-miterlimit:4;stroke-dasharray:none"
         d="M 317.50005,332.49576 C 316.92015,334.04291 315.39168,335.00504 313.76816,334.84485 312.14474,334.68466 310.82758,333.44178 310.55219,331.81013 310.2769,330.17848 311.11134,328.56156 312.58977,327.8622"
         id="mark_1F_toilet1A-4"
         jsh:type="arc"
         jsh:cx="3276"
         jsh:cy="4534"
         jsh:rx="42"
         jsh:ry="42"
         jsh:rotate="0"
         jsh:startAngle="19"
         jsh:endAngle="245" /><path
         id="mark_1F_toilet1A-3"
         d="M 313.59378,326.79972 314.48505,330.86276 H 318.20918 L 319.40576,333.86222 H 320.50003"
         style="color:#000000;display:inline;overflow:visible;visibility:visible;fill:none;stroke:#000000;stroke-width:1.00345;stroke-linecap:square;stroke-linejoin:miter;stroke-miterlimit:4;stroke-dasharray:none;stroke-dashoffset:0;stroke-opacity:1;marker:none;enable-background:accumulate" /><path
         id="mark_1F_toilet1A-2"
         d="M -382.7857,-521.8496 -342.42857,-521.84961"
         style="color:#000000;display:inline;overflow:visible;visibility:visible;fill:none;stroke:#000000;stroke-width:10.4369;stroke-linecap:butt;stroke-linejoin:miter;stroke-miterlimit:4;stroke-dasharray:none;stroke-dashoffset:0;stroke-opacity:1;marker:none;enable-background:accumulate"
         transform="matrix(0.1177563,0,0,0.08846611,358.79235,374.05901)" /><path
         style="display:inline;fill:#000000;fill-opacity:1;stroke:none;stroke-width:0.10549"
         id="mark_1F_toilet1A-1"
         d="M 315.01045,323.86734 A 1.5051739,1.5051709 0 0 1 313.50877,325.37251 1.5051739,1.5051709 0 0 1 312.00012,323.87432 1.5051739,1.5051709 0 0 1 313.49481,322.36221 1.5051739,1.5051709 0 0 1 315.01039,323.85338" /><path
         style="display:inline;fill:#000000;fill-rule:evenodd;stroke-width:1.00345"
         d="M 302.92014,335.3875 308.00011,335.38654 305.96813,326.35656 H 304.96621 L 302.92014,335.38759 Z"
         id="mark_1F_toilet1F-2" /><path
         d="M 306.96529,323.86734 A 1.5051739,1.5051709 0 0 1 305.4636,325.37251 1.5051739,1.5051709 0 0 1 303.95496,323.87432 1.5051739,1.5051709 0 0 1 305.44964,322.36221 1.5051739,1.5051709 0 0 1 306.96522,323.85338"
         id="mark_1F_toilet1F-1"
         style="display:inline;fill:#000000;fill-opacity:1;stroke:none;stroke-width:0.10549" /><path
         style="display:inline;fill:#000000;fill-rule:evenodd;stroke-width:1.00345"
         d="M 294.9653,326.35661 300.04526,326.35755 297.50528,335.76389 294.9653,326.35657 Z"
         id="mark_1F_toilet1M-2" /><path
         style="display:inline;fill:#000000;fill-opacity:1;stroke:none;stroke-width:0.10549"
         id="mark_1F_toilet1M-1"
         d="M 299.01045,323.86734 A 1.5051739,1.5051709 0 0 1 297.50877,325.37251 1.5051739,1.5051709 0 0 1 296.00012,323.87432 1.5051739,1.5051709 0 0 1 297.49481,322.36221 1.5051739,1.5051709 0 0 1 299.01039,323.85338" /></g></g>
<g
         id="Route"
         data-floor-id="sh-1f"
         style="display:none">
        <circle
           id="sh_entrance_north"
           data-route-node=""
           data-kind="entrance"
           data-entrance-id="sh_north"
           cx="55"
           cy="4"
           r="2" />
        <circle
           id="sh_entrance_main"
           data-route-node=""
           data-kind="entrance"
           data-place-id="sh_entrance_main"
           data-entrance-id="sh_main"
           cx="62"
           cy="60"
           r="2" />
        <circle
           id="sh_entrance_south1f"
           data-route-node=""
           data-kind="entrance"
           data-entrance-id="sh_south1f"
           cx="51"
           cy="85"
           r="2" />
        <circle
           id="sh_room_cafeteria"
           data-route-node=""
           data-kind="corridor"
           data-place-id="sh_room_cafeteria"
           cx="92"
           cy="27"
           r="2" />
        <circle
           id="sh_room_kitchen"
           data-route-node=""
           data-kind="corridor"
           cx="32"
           cy="50"
           r="2" />
        <circle
           id="sh_room_shop"
           data-route-node=""
           data-kind="corridor"
           data-place-id="sh_room_shop"
           cx="32"
           cy="85"
           r="2" />
        <circle
           id="sh_node_1f_1"
           data-route-node=""
           data-kind="corridor"
           cx="32"
           cy="60"
           r="2" />
        <circle
           id="sh_node_1f_2"
           data-route-node=""
           data-kind="corridor"
           cx="52"
           cy="50"
           r="2" />
        <circle
           id="sh_node_1f_3"
           data-route-node=""
           data-kind="corridor"
           cx="55"
           cy="27"
           r="2" />
        <circle
           id="sh_stairs_main_1_1f"
           data-route-node=""
           data-kind="stairs"
           data-place-id="sh_stairs_main_1_1f"
           data-stair-id="sh_main_1"
           cx="51"
           cy="36"
           r="2" />
        <circle
           id="sh_stairs_main_2_1f"
           data-route-node=""
           data-kind="stairs"
           data-place-id="sh_stairs_main_2_1f"
           data-stair-id="sh_main_2"
           cx="28"
           cy="67"
           r="2" />
        <circle
           id="sh_node_1f_5"
           data-route-node=""
           data-kind="corridor"
           cx="32"
           cy="67"
           r="2" />
        <circle
           id="sh_node_1f_6"
           data-route-node=""
           data-kind="corridor"
           cx="61"
           cy="39"
           r="2" />
        <circle
           id="sh_node_1f_4"
           data-route-node=""
           data-kind="corridor"
           cx="55"
           cy="36"
           r="2" />
        <circle
           id="sh_node_1f_7"
           data-route-node=""
           data-kind="corridor"
           cx="55"
           cy="13"
           r="2" />
        <circle
           id="sh_reception"
           data-route-node=""
           data-kind="corridor"
           data-place-id="sh_reception"
           cx="66.5"
           cy="46.5"
           r="2" />
        <path
           id="route_edge_sh_reception_to_sh_node_1f_6"
           data-route-edge=""
           data-node-a="sh_reception"
           data-node-b="sh_node_1f_6"
           d="M 66.5 46.5 L 61 39" />
        <path
           id="route_edge_sh_room_shop_to_sh_entrance_south1f"
           data-route-edge=""
           data-node-a="sh_room_shop"
           data-node-b="sh_entrance_south1f"
           d="M 32 85 L 51 85" />
        <path
           id="route_edge_sh_node_1f_1_to_sh_room_kitchen"
           data-route-edge=""
           data-node-a="sh_node_1f_1"
           data-node-b="sh_room_kitchen"
           d="M 32 60 L 32 50" />
        <path
           id="route_edge_sh_node_1f_1_to_sh_node_1f_2"
           data-route-edge=""
           data-node-a="sh_node_1f_1"
           data-node-b="sh_node_1f_2"
           d="M 32 60 L 52 50" />
        <path
           id="route_edge_sh_node_1f_3_to_sh_room_cafeteria"
           data-route-edge=""
           data-node-a="sh_node_1f_3"
           data-node-b="sh_room_cafeteria"
           d="M 55 27 L 92 27" />
        <path
           id="route_edge_sh_node_1f_2_to_sh_entrance_main"
           data-route-edge=""
           data-node-a="sh_node_1f_2"
           data-node-b="sh_entrance_main"
           d="M 52 50 L 62 60" />
        <path
           id="route_edge_sh_node_1f_5_to_sh_room_shop"
           data-route-edge=""
           data-node-a="sh_node_1f_5"
           data-node-b="sh_room_shop"
           d="M 32 67 L 32 85" />
        <path
           id="route_edge_sh_node_1f_5_to_sh_node_1f_1"
           data-route-edge=""
           data-node-a="sh_node_1f_5"
           data-node-b="sh_node_1f_1"
           d="M 32 67 L 32 60" />
        <path
           id="route_edge_sh_node_1f_5_to_sh_stairs_main_2_1f"
           data-route-edge=""
           data-node-a="sh_node_1f_5"
           data-node-b="sh_stairs_main_2_1f"
           d="M 32 67 L 28 67" />
        <path
           id="route_edge_sh_node_1f_2_to_sh_node_1f_6"
           data-route-edge=""
           data-node-a="sh_node_1f_2"
           data-node-b="sh_node_1f_6"
           d="M 52 50 L 61 39" />
        <path
           id="route_edge_sh_node_1f_6_to_sh_room_cafeteria"
           data-route-edge=""
           data-node-a="sh_node_1f_6"
           data-node-b="sh_room_cafeteria"
           d="M 61 39 L 92 27" />
        <path
           id="route_edge_sh_node_1f_3_to_sh_node_1f_6"
           data-route-edge=""
           data-node-a="sh_node_1f_3"
           data-node-b="sh_node_1f_6"
           d="M 55 27 L 61 39" />
        <path
           id="route_edge_sh_node_1f_3_to_sh_node_1f_4"
           data-route-edge=""
           data-node-a="sh_node_1f_3"
           data-node-b="sh_node_1f_4"
           d="M 55 27 L 55 36" />
        <path
           id="route_edge_sh_node_1f_4_to_sh_node_1f_6"
           data-route-edge=""
           data-node-a="sh_node_1f_4"
           data-node-b="sh_node_1f_6"
           d="M 55 36 L 61 39" />
        <path
           id="route_edge_sh_node_1f_4_to_sh_node_1f_2"
           data-route-edge=""
           data-node-a="sh_node_1f_4"
           data-node-b="sh_node_1f_2"
           d="M 55 36 L 52 50" />
        <path
           id="route_edge_sh_node_1f_4_to_sh_stairs_main_1_1f"
           data-route-edge=""
           data-node-a="sh_node_1f_4"
           data-node-b="sh_stairs_main_1_1f"
           d="M 55 36 L 51 36" />
        <path
           id="route_edge_sh_entrance_north_to_sh_node_1f_7"
           data-route-edge=""
           data-node-a="sh_entrance_north"
           data-node-b="sh_node_1f_7"
           d="M 55 4 L 55 13" />
        <path
           id="route_edge_sh_node_1f_7_to_sh_node_1f_3"
           data-route-edge=""
           data-node-a="sh_node_1f_7"
           data-node-b="sh_node_1f_3"
           d="M 55 13 L 55 27" />
        <path
           id="route_edge_sh_node_1f_7_to_sh_room_cafeteria"
           data-route-edge=""
           data-node-a="sh_node_1f_7"
           data-node-b="sh_room_cafeteria"
           d="M 55 13 L 92 27" />
      </g>
</svg>
